<?xml version="1.0" encoding="utf-8" standalone="no"?>
<!-- Generator: Adobe Illustrator 16.0.3, SVG Export Plug-In . SVG Version: 6.00 Build 0)  --><svg xmlns="http://www.w3.org/2000/svg" xmlns:xlink="http://www.w3.org/1999/xlink" enable-background="new 0 0 300 41" height="179" id="Layer_1" version="1.1" viewBox="0 0 300 41" width="1312" x="0px" xml:space="preserve" y="0px">
<g>
	<g>
		<path d="M22.434,10.046c5.601,0,10.84,1.5,15.353,4.14l4.813-8.23C36.682,2.483,29.789,0.5,22.435,0.5    C15.081,0.5,8.197,2.484,2.27,5.956l4.821,8.229C11.595,11.545,16.84,10.046,22.434,10.046z"/>
	</g>
	<g>
		<path d="M26.883,14.567c-1.957-0.018-7.884-0.132-15.514,3.394c-0.974,0.45-1.661,0.823-1.82,0.585    c-0.328-0.516,2.096-2.58,4.692-4.091c0.937-0.557,1.476-1.041,1.265-1.458c-0.307-0.602-2.17-0.726-7.373,1.934    C5.47,16.415,3.066,18.314,1,20.528l0.853,0.81c0.831-0.895,1.73-1.712,2.647-2.512c0.619-0.532,3.467-2.661,3.71-2.014    c0.099,0.254-0.086,0.624-1.092,2.007c-0.88,1.216-1.455,2.353-1.037,2.688c0.409,0.358,0.913,0.157,2.102-0.496    c0.868-0.483,3.657-1.958,8.06-3.283c4.39-1.313,5.462-0.809,5.57-0.497c0.132,0.435-1.893,1.155-3.089,1.746    c-0.998,0.514-4.519,2.59-6.438,4.131c0,0,1.858,3.179,1.866,3.179c1.976-1.158,9.5-3.07,10.302-1.697    c0.881,1.513-7.125,7.133-7.125,7.133l5.105,8.776c0,0,11.599-13.333,9.746-16.254c-1.857-2.906-8.846-2.375-11.604-2.119    c-0.76,0.081-1.647,0.233-1.837-0.129c-0.201-0.416,0.038-2.08,9.344-4.289c2.076-0.493,2.879-0.744,2.767-1.657    C30.753,15.27,28.834,14.59,26.883,14.567z"/>
	</g>
	<g>
		<path d="M57.556,17.725c0.737-0.017,1.222-0.017,1.222-0.495c0-0.302-0.258-0.942-0.555-1.692l-0.417-1.094H53.63l-0.441,1.048    c-0.226,0.553-0.426,1.138-0.426,1.55c0,0.44,0.329,0.667,0.88,0.683h0.44v0.47h-3.511v-0.47c0.825,0,1.137-0.427,1.677-1.718    l3.173-7.636c0.267-0.624,0.508-1.239,0.696-1.943h1.452c0.211,0.82,0.464,1.564,0.751,2.317l3.014,7.803    c0.196,0.524,0.455,1.179,1.093,1.179h0.341v0.47h-5.215L57.556,17.725L57.556,17.725z M55.802,9.213l-1.942,4.661h3.734    L55.802,9.213z"/>
		<path d="M62.945,17.725H63.5c0.485,0,0.653-0.213,0.653-1.108v-5.004c0-0.896-0.167-1.108-0.653-1.108h-0.555v-0.472h1.708    c0.608,0,1.193-0.113,1.746-0.266v1.45h0.029c0.655-0.926,1.438-1.45,2.645-1.45c1.107,0,1.92,0.41,2.23,1.45    c0.697-1.009,1.366-1.45,2.718-1.45c1.604,0,2.384,0.963,2.384,2.316v4.534c0,0.895,0.16,1.108,0.654,1.108h0.355v0.47h-4.365    v-0.47h0.356c0.487,0,0.654-0.213,0.654-1.108V12.51c0-0.796,0-1.731-1.049-1.731c-1.563,0-1.563,1.799-1.563,2.809v3.029    c0,0.895,0.167,1.108,0.652,1.108h0.358v0.47h-4.366v-0.47h0.356c0.495,0,0.651-0.213,0.651-1.108v-4.107    c0-0.796,0-1.731-1.04-1.731c-1.561,0-1.561,1.799-1.561,2.809v3.029c0,0.895,0.156,1.108,0.643,1.108h0.365v0.47h-4.563v-0.47    h0.003V17.725z"/>
		<path d="M78.389,15.525h0.514c0.327,1.379,1.094,2.359,2.627,2.359c0.829,0,1.622-0.485,1.622-1.321    c0-1.039-0.81-1.268-2.373-1.624c-1.207-0.283-2.39-0.683-2.39-2.371c0-1.936,1.41-2.801,3.201-2.801    c0.737,0,1.261,0.266,1.792,0.266c0.439,0,0.693-0.138,0.881-0.266h0.099v2.628h-0.515c-0.167-1.079-1.048-2.059-2.186-2.059    c-0.797,0-1.618,0.296-1.618,1.292c0,0.826,0.427,0.94,2.316,1.382c1.448,0.326,2.558,0.781,2.558,2.671    c0,1.96-1.61,2.772-3.328,2.772c-0.767,0-1.593-0.258-2.292-0.258c-0.325,0-0.653,0.144-0.821,0.258h-0.087V15.525L78.389,15.525z    "/>
		<path d="M91.146,10.505h-1.708v5.247c0,0.978,0,1.691,0.753,1.691c0.612,0,0.713-0.599,0.728-1.17v-0.521h0.623v0.356    c0,1.632-0.653,2.345-2.134,2.345c-1.687,0-2.316-1.04-2.316-2.133v-5.815h-1.146v-0.471c1.619-0.098,2.644-1.663,3-3.126h0.493    v3.126h1.708V10.505L91.146,10.505z"/>
		<path d="M95.109,14.143v0.399c0,1.633,0.146,3.341,2.004,3.341c1.422,0,2.248-1.207,2.277-2.491h0.722    c-0.212,2.006-1.488,3.06-3.523,3.06c-2.587,0-4.022-1.807-4.022-4.351c0-2.518,1.436-4.335,4.022-4.335    c2.727,0,3.683,1.846,3.683,4.376H95.109L95.109,14.143z M97.729,13.662c0-1.752,0-3.326-1.197-3.326    c-1.36,0-1.422,1.732-1.422,3.326H97.729z"/>
		<path d="M104.838,16.617c0,0.895,0.17,1.108,0.655,1.108h0.752v0.47h-4.956v-0.47h0.552c0.495,0,0.652-0.213,0.652-1.108v-5.004    c0-0.896-0.157-1.108-0.652-1.108h-0.552v-0.472h1.716c0.598,0,1.184-0.113,1.738-0.266v1.846h0.067    c0.356-0.834,1.092-1.731,2.187-1.731c0.768,0,1.626,0.328,1.626,1.376c0,0.766-0.504,1.167-1.37,1.167    c-0.39,0-1.074-0.198-1.074-1.039c0-0.311,0-0.396-0.191-0.396c-0.464,0-1.149,1.063-1.149,2.811v2.816H104.838z"/>
		<path d="M115.085,17.004h-0.028c-0.382,1.048-1.308,1.45-2.448,1.45c-2.288,0-3.14-2.346-3.14-4.311    c0-2.088,0.787-4.375,3.171-4.375c1.034,0,1.807,0.428,2.308,1.337h0.03V7.619c0-0.796-0.03-1.094-0.652-1.094h-0.503V6.057h3.511    v10.546c0,0.971,0.227,1.124,0.653,1.124h0.512v0.469h-3.415L115.085,17.004L115.085,17.004z M113.279,17.642    c1.638,0,1.655-2.628,1.655-3.698c0-1.108-0.14-3.354-1.687-3.354c-1.229,0-1.229,2.504-1.229,3.286    C112.019,14.672,112.019,17.642,113.279,17.642z"/>
		<path d="M128.181,15.934c0,1.084-0.032,2.519-2.039,2.519c-0.651,0-1.486-0.342-1.779-1.085c-0.469,0.813-1.469,1.085-2.364,1.085    c-1.414,0-2.569-0.782-2.569-2.277c0-2.102,2.356-2.815,4.132-2.815c0.243,0,0.47,0,0.714,0.015v-1.718    c0-0.714-0.229-1.322-1.094-1.322c-0.366,0-1.109,0.069-1.109,0.494c0,0.175,0.366,0.47,0.366,0.926    c0,0.683-0.593,1.092-1.231,1.092c-0.729,0-1.212-0.467-1.212-1.207c0-1.535,2.123-1.874,3.295-1.874    c1.565,0,3.341,0.41,3.341,2.301v4.861c0,0.438,0.133,0.613,0.39,0.613c0.538,0,0.538-0.864,0.538-1.609h0.621V15.934    L128.181,15.934z M124.279,13.89c-0.215-0.042-0.352-0.06-0.486-0.06c-1.319,0-1.912,0.88-1.912,2.332    c0,0.726,0.303,1.48,1.12,1.48c0.425,0,1.279-0.274,1.279-1.678L124.279,13.89L124.279,13.89z"/>
		<path d="M128.762,17.725h0.563c0.484,0,0.651-0.213,0.651-1.108v-5.004c0-0.896-0.167-1.108-0.651-1.108h-0.563v-0.472h1.717    c0.609,0,1.183-0.113,1.746-0.266v1.45h0.027c0.655-0.926,1.427-1.45,2.643-1.45c1.107,0,1.914,0.41,2.231,1.45    c0.699-1.009,1.369-1.45,2.72-1.45c1.592,0,2.385,0.963,2.385,2.316v4.534c0,0.895,0.147,1.108,0.652,1.108h0.346v0.47h-4.353    v-0.47h0.347c0.485,0,0.653-0.213,0.653-1.108V12.51c0-0.796,0-1.731-1.047-1.731c-1.568,0-1.568,1.799-1.568,2.809v3.029    c0,0.895,0.172,1.108,0.654,1.108h0.368v0.47h-4.376v-0.47h0.366c0.486,0,0.652-0.213,0.652-1.108v-4.107    c0-0.796,0-1.731-1.048-1.731c-1.563,0-1.563,1.799-1.563,2.809v3.029c0,0.895,0.169,1.108,0.653,1.108h0.364v0.47h-4.568V17.725    L128.762,17.725z"/>
		<path d="M160.092,7.067h-0.424c-0.805,0-0.82,0.439-0.82,2.527v4.89c0,2.389-1.514,3.968-4.129,3.968    c-3.021,0-4.603-1.624-4.603-4.04V9.593c0-2.088-0.013-2.527-0.819-2.527h-0.407V6.595h5.009v0.471h-0.426    c-0.789,0-0.803,0.439-0.803,2.527v5.161c0,2.203,1.199,2.985,2.547,2.985c1.553,0,2.918-1.123,2.918-3.509V9.594    c0-2.088-0.018-2.527-0.82-2.527h-0.408V6.595h3.186V7.067L160.092,7.067z"/>
		<path d="M160.711,17.725h0.545c0.486,0,0.652-0.213,0.652-1.108v-5.004c0-0.896-0.166-1.108-0.652-1.108h-0.545v-0.472h1.697    c0.609,0,1.205-0.113,1.746-0.266v1.45h0.031c0.652-0.926,1.443-1.45,2.643-1.45c1.592,0,2.383,0.963,2.383,2.316v4.534    c0,0.895,0.17,1.108,0.656,1.108h0.346v0.47h-4.357v-0.47h0.348c0.508,0,0.654-0.213,0.654-1.108V12.51    c0-0.796,0-1.731-1.029-1.731c-1.564,0-1.564,1.799-1.564,2.809v3.029c0,0.895,0.15,1.108,0.652,1.108h0.35v0.47h-4.555V17.725    L160.711,17.725z"/>
		<path d="M170.855,17.725h0.563c0.486,0,0.652-0.213,0.652-1.108v-5.004c0-0.896-0.166-1.108-0.652-1.108h-0.563v-0.472h1.719    c0.652,0,1.41-0.083,1.93-0.266c-0.123,1.291-0.094,2.544-0.094,3.796v3.053c0,0.895,0.166,1.108,0.652,1.108h0.563v0.47h-4.77    V17.725L170.855,17.725z M173.24,6.057c0.744,0,1.367,0.613,1.367,1.368c0,0.75-0.623,1.375-1.367,1.375s-1.365-0.625-1.365-1.375    C171.875,6.67,172.496,6.057,173.24,6.057z"/>
		<path d="M184.432,10.505c-0.59,0-0.771,0.501-1.029,1.124l-1.99,4.804c-0.242,0.611-0.469,1.224-0.668,1.861h-1.092    c-0.152-0.425-0.291-0.88-0.457-1.291l-2.172-5.42c-0.273-0.709-0.318-1.08-0.807-1.08h-0.271v-0.471h4.465v0.471h-0.545    c-0.271,0-0.564,0.061-0.564,0.357c0,0.083,0.063,0.282,0.154,0.553l1.592,4.153h0.029l1.625-4.068    c0.076-0.228,0.123-0.409,0.123-0.557c0-0.279-0.273-0.438-0.561-0.438h-0.396v-0.471h2.564V10.505L184.432,10.505z"/>
		<path d="M187.318,14.143v0.399c0,1.633,0.148,3.341,2.004,3.341c1.426,0,2.244-1.207,2.295-2.491h0.711    c-0.215,2.006-1.49,3.06-3.523,3.06c-2.598,0-4.023-1.807-4.023-4.351c0-2.518,1.424-4.335,4.023-4.335    c2.717,0,3.691,1.846,3.691,4.376H187.318L187.318,14.143L187.318,14.143z M189.943,13.662c0-1.752,0-3.326-1.199-3.326    c-1.352,0-1.426,1.732-1.426,3.326H189.943z"/>
		<path d="M196.92,16.617c0,0.895,0.166,1.108,0.65,1.108h0.764v0.47h-4.953v-0.47h0.549c0.484,0,0.65-0.213,0.65-1.108v-5.004    c0-0.896-0.166-1.108-0.65-1.108h-0.549v-0.472h1.701c0.609,0,1.203-0.113,1.748-0.266v1.846h0.057    c0.365-0.834,1.096-1.731,2.188-1.731c0.777,0,1.623,0.328,1.623,1.376c0,0.766-0.5,1.167-1.367,1.167    c-0.377,0-1.08-0.198-1.08-1.039c0-0.311,0-0.396-0.176-0.396c-0.459,0-1.156,1.063-1.156,2.811v2.816H196.92z"/>
		<path d="M201.551,15.525h0.535c0.318,1.379,1.094,2.359,2.607,2.359c0.838,0,1.645-0.485,1.645-1.321    c0-1.039-0.82-1.268-2.387-1.624c-1.197-0.283-2.398-0.683-2.398-2.371c0-1.936,1.43-2.801,3.221-2.801    c0.727,0,1.244,0.266,1.791,0.266c0.439,0,0.682-0.138,0.881-0.266h0.09v2.628h-0.516c-0.166-1.079-1.049-2.059-2.186-2.059    c-0.807,0-1.609,0.296-1.609,1.292c0,0.826,0.426,0.94,2.307,1.382c1.459,0.326,2.568,0.781,2.568,2.671    c0,1.96-1.627,2.772-3.326,2.772c-0.775,0-1.594-0.258-2.311-0.258c-0.318,0-0.652,0.144-0.799,0.258h-0.111v-2.929H201.551z"/>
		<path d="M208.938,17.725h0.559c0.488,0,0.656-0.213,0.656-1.108v-5.004c0-0.896-0.168-1.108-0.656-1.108h-0.559v-0.472h1.715    c0.654,0,1.43-0.083,1.934-0.266c-0.127,1.291-0.096,2.544-0.096,3.796v3.053c0,0.895,0.166,1.108,0.654,1.108h0.559v0.47h-4.766    V17.725z M211.322,6.057c0.758,0,1.365,0.613,1.365,1.368c0,0.75-0.605,1.375-1.365,1.375c-0.746,0-1.369-0.625-1.369-1.375    C209.955,6.67,210.578,6.057,211.322,6.057z"/>
		<path d="M219.479,10.505h-1.717v5.247c0,0.978,0,1.691,0.742,1.691c0.625,0,0.732-0.599,0.748-1.17v-0.521h0.623v0.356    c0,1.632-0.654,2.345-2.143,2.345c-1.688,0-2.307-1.04-2.307-2.133v-5.815h-1.156v-0.471c1.625-0.098,2.641-1.663,3.008-3.126    h0.484v3.126h1.717V10.505L219.479,10.505z"/>
		<path d="M228.865,10.505c-0.611,0-0.807,0.501-1.049,1.124l-3.205,8.102c-0.594,1.464-1.045,2.271-2.504,2.271    c-0.805,0-1.609-0.639-1.609-1.473c0-0.713,0.422-1.177,1.107-1.177c0.715,0,1.045,0.478,1.045,0.963    c0,0.394-0.254,0.589-0.254,0.818c0,0.153,0.137,0.29,0.285,0.29c0.457,0,0.928-0.831,1.275-1.792l0.395-1.092l-2.656-6.81    c-0.166-0.41-0.395-1.223-0.879-1.223h-0.365v-0.472h4.463v0.471h-0.289c-0.35,0-0.727,0.015-0.727,0.41    c0,0.061,0.029,0.188,0.09,0.387l1.578,4.175h0.029l1.461-3.848c0.09-0.272,0.15-0.485,0.15-0.598    c0-0.441-0.262-0.526-0.551-0.526h-0.41v-0.471h2.615L228.865,10.505L228.865,10.505z"/>
		<path d="M55.537,28.488c2.588,0,4.022,1.806,4.022,4.323c0,2.552-1.434,4.359-4.022,4.359c-2.589,0-4.024-1.808-4.024-4.359    C51.514,30.294,52.948,28.488,55.537,28.488z M55.537,36.594c1.163,0,1.578-0.957,1.578-3.782c0-3.217-0.713-3.766-1.578-3.766    c-0.865,0-1.579,0.549-1.579,3.766C53.958,35.637,54.384,36.594,55.537,36.594z"/>
		<path d="M61.736,29.212h-1.205v-0.467h1.205v-0.743c0-2.129,1.011-3.494,3.229-3.494c1.078,0,2.529,0.426,2.529,1.731    c0,0.711-0.427,1.168-1.133,1.168c-0.628,0-1.125-0.351-1.125-1.019c0-0.685,0.496-0.744,0.496-1.061    c0-0.262-0.343-0.351-0.554-0.351c-1.192-0.059-1.098,1.426-1.098,2.278v1.488h1.552v0.469h-1.552v6.104    c0,0.914,0.162,1.11,0.655,1.11h0.896v0.486H60.53v-0.486h0.552c0.488,0,0.653-0.196,0.653-1.11L61.736,29.212L61.736,29.212z"/>
		<path d="M77.777,36.426c0.734-0.017,1.22-0.017,1.22-0.485c0-0.304-0.258-0.941-0.552-1.685l-0.426-1.092H73.85l-0.438,1.03    c-0.229,0.563-0.427,1.157-0.427,1.55c0,0.438,0.326,0.667,0.88,0.682h0.441v0.488h-3.522v-0.488c0.838,0,1.138-0.407,1.678-1.697    l3.181-7.655c0.257-0.607,0.5-1.23,0.699-1.927h1.45c0.213,0.802,0.455,1.565,0.751,2.307l3.013,7.803    c0.198,0.534,0.455,1.17,1.094,1.17h0.342v0.486h-5.215V36.426L77.777,36.426z M76.014,27.922l-1.935,4.661h3.728L76.014,27.922z"/>
		<path d="M83.126,39.965h0.554c0.525,0,0.621-0.517,0.621-1.338v-7.105c0-1.715,0.062-2.31-0.735-2.31h-0.411v-0.467h1.421    c0.699,0,1.404-0.122,1.975-0.257v1.519h0.03c0.453-1.081,1.39-1.519,2.415-1.519c2.374,0,3.156,2.272,3.156,4.354    c0,1.975-0.84,4.329-3.127,4.329c-1.01,0-1.975-0.453-2.345-1.307h-0.03v2.322c0,1.398,0,1.778,0.667,1.778h0.517v0.471h-4.708    V39.965L83.126,39.965z M88.355,36.352c1.253,0,1.253-2.961,1.253-3.769c0-0.771,0-3.291-1.237-3.291    c-1.55,0-1.678,2.262-1.678,3.354C86.693,33.724,86.708,36.352,88.355,36.352z"/>
		<path d="M93.092,39.965h0.556c0.515,0,0.613-0.517,0.613-1.338v-7.105c0-1.715,0.069-2.31-0.727-2.31h-0.409v-0.467h1.419    c0.698,0,1.396-0.122,1.965-0.257v1.519h0.04c0.455-1.081,1.379-1.519,2.406-1.519c2.382,0,3.166,2.272,3.166,4.354    c0,1.975-0.849,4.329-3.128,4.329c-1.01,0-1.973-0.453-2.345-1.307h-0.038v2.322c0,1.398,0,1.778,0.668,1.778h0.525v0.471h-4.709    L93.092,39.965L93.092,39.965z M98.322,36.352c1.252,0,1.252-2.961,1.252-3.769c0-0.771,0-3.291-1.238-3.291    c-1.547,0-1.678,2.262-1.678,3.354C96.659,33.724,96.674,36.352,98.322,36.352z"/>
		<path d="M102.966,36.426h0.553c0.495,0,0.655-0.196,0.655-1.108v-8.974c0-0.895-0.159-1.108-0.655-1.108h-0.553v-0.47h3.555    v10.551c0,0.912,0.166,1.108,0.652,1.108h0.555v0.486h-4.762V36.426z"/>
		<path d="M108.123,36.426h0.556c0.484,0,0.653-0.196,0.653-1.108v-4.993c0-0.897-0.169-1.112-0.653-1.112h-0.556v-0.467h1.708    c0.653,0,1.416-0.076,1.928-0.257c-0.119,1.288-0.088,2.532-0.088,3.791v3.038c0,0.912,0.167,1.108,0.654,1.108h0.562v0.486    h-4.763V36.426z M110.498,24.767c0.747,0,1.368,0.622,1.368,1.365c0,0.761-0.62,1.365-1.368,1.365    c-0.746,0-1.365-0.604-1.365-1.365C109.133,25.389,109.753,24.767,110.498,24.767z"/>
		<path d="M116.272,32.842v0.412c0,1.641,0.152,3.338,2.003,3.338c1.411,0,2.246-1.196,2.276-2.49h0.716    c-0.197,2.006-1.473,3.069-3.507,3.069c-2.598,0-4.023-1.808-4.023-4.359c0-2.518,1.426-4.323,4.023-4.323    c2.717,0,3.674,1.836,3.674,4.354H116.272L116.272,32.842z M118.9,32.373c0-1.765,0-3.329-1.217-3.329    c-1.35,0-1.41,1.732-1.41,3.329H118.9z"/>
		<path d="M128.413,35.71h-0.05c-0.363,1.05-1.289,1.461-2.444,1.461c-2.276,0-3.127-2.354-3.127-4.331    c0-2.079,0.788-4.355,3.173-4.355c1.033,0,1.807,0.427,2.308,1.335h0.03v-3.494c0-0.805-0.03-1.092-0.655-1.092h-0.499v-0.47    h3.508V35.3c0,0.989,0.229,1.124,0.654,1.124h0.515v0.488h-3.413L128.413,35.71L128.413,35.71z M126.584,36.352    c1.658,0,1.673-2.628,1.673-3.706c0-1.092-0.138-3.354-1.688-3.354c-1.229,0-1.229,2.521-1.229,3.291    C125.342,33.391,125.342,36.352,126.584,36.352z"/>
		<path d="M137.921,33.815h0.622c0,1.61,1.461,2.776,3.127,2.776c1.369,0,2.264-0.787,2.264-2.079c0-3.037-6.105-1.673-6.105-5.97    c0-2.29,1.748-3.505,3.855-3.505c0.927,0,1.917,0.426,2.445,0.426c0.307,0,0.44-0.168,0.47-0.317h0.534v2.928h-0.624    c-0.106-1.474-1.248-2.458-2.73-2.458c-1.11,0-2.299,0.546-2.299,1.822c0,2.824,6.214,1.351,6.214,6.055    c0,2.325-1.883,3.678-4.025,3.678c-1.125,0-2.158-0.429-2.777-0.429c-0.304,0-0.394,0.12-0.44,0.32h-0.532V33.815L137.921,33.815z    "/>
		<path d="M154.477,34.162c-0.227,2.019-1.354,3.009-3.371,3.009c-2.643,0-3.859-1.991-3.859-4.436c0-3.068,2.201-4.251,4.16-4.251    c2.252,0,2.918,1.214,2.918,1.789c0,0.775-0.412,1.326-1.264,1.326c-0.666,0-1.09-0.473-1.09-1.124    c0-0.471,0.244-0.564,0.244-0.765c0-0.347-0.563-0.667-0.943-0.667c-1.396,0-1.472,1.975-1.472,3.888    c0,1.294-0.015,3.66,1.794,3.66c1.469,0,2.049-1.09,2.15-2.43H154.477L154.477,34.162z"/>
		<path d="M155.252,36.426h0.564c0.484,0,0.652-0.196,0.652-1.108v-4.993c0-0.897-0.168-1.112-0.652-1.112h-0.564v-0.467h1.719    c0.65,0,1.41-0.076,1.93-0.257c-0.123,1.288-0.094,2.532-0.094,3.791v3.038c0,0.912,0.168,1.108,0.654,1.108h0.561v0.486h-4.77    V36.426L155.252,36.426z M157.639,24.767c0.744,0,1.363,0.622,1.363,1.365c0,0.761-0.621,1.365-1.363,1.365    s-1.365-0.604-1.365-1.365C156.273,25.389,156.896,24.767,157.639,24.767z"/>
		<path d="M163.41,32.842v0.412c0,1.641,0.135,3.338,2.004,3.338c1.414,0,2.248-1.196,2.277-2.49h0.713    c-0.213,2.006-1.469,3.069-3.506,3.069c-2.594,0-4.041-1.808-4.041-4.359c0-2.518,1.447-4.323,4.041-4.323    c2.719,0,3.674,1.836,3.674,4.354H163.41L163.41,32.842z M166.039,32.373c0-1.765,0-3.329-1.217-3.329    c-1.35,0-1.412,1.732-1.412,3.329H166.039z"/>
		<path d="M169.596,36.426h0.545c0.486,0,0.654-0.196,0.654-1.108v-4.993c0-0.897-0.168-1.112-0.654-1.112h-0.545v-0.467h1.699    c0.607,0,1.201-0.122,1.746-0.257v1.438h0.029c0.654-0.927,1.445-1.438,2.643-1.438c1.596,0,2.383,0.954,2.383,2.305v4.524    c0,0.912,0.168,1.108,0.652,1.108h0.348v0.486h-4.355v-0.486h0.348c0.504,0,0.652-0.196,0.652-1.108v-4.099    c0-0.807,0-1.732-1.029-1.732c-1.566,0-1.566,1.791-1.566,2.811v3.021c0,0.912,0.152,1.108,0.652,1.108h0.35v0.486h-4.555    L169.596,36.426L169.596,36.426z"/>
		<path d="M187.174,34.162c-0.229,2.019-1.35,3.009-3.389,3.009c-2.621,0-3.842-1.991-3.842-4.436c0-3.068,2.203-4.251,4.164-4.251    c2.246,0,2.916,1.214,2.916,1.789c0,0.775-0.412,1.326-1.264,1.326c-0.668,0-1.09-0.473-1.09-1.124    c0-0.471,0.225-0.564,0.225-0.765c0-0.347-0.545-0.667-0.924-0.667c-1.398,0-1.473,1.975-1.473,3.888    c0,1.294-0.016,3.66,1.791,3.66c1.471,0,2.049-1.09,2.154-2.43H187.174L187.174,34.162z"/>
		<path d="M190.822,32.842v0.412c0,1.641,0.152,3.338,2.004,3.338c1.414,0,2.246-1.196,2.279-2.49h0.729    c-0.213,2.006-1.49,3.069-3.521,3.069c-2.598,0-4.025-1.808-4.025-4.359c0-2.518,1.428-4.323,4.025-4.323    c2.719,0,3.674,1.836,3.674,4.354H190.822L190.822,32.842z M193.449,32.373c0-1.765,0-3.329-1.215-3.329    c-1.352,0-1.412,1.732-1.412,3.329H193.449z"/>
		<path d="M197.34,34.242h0.535c0.318,1.38,1.092,2.352,2.613,2.352c0.832,0,1.637-0.486,1.637-1.322    c0-1.029-0.82-1.258-2.385-1.622c-1.199-0.274-2.4-0.684-2.4-2.372c0-1.925,1.43-2.791,3.221-2.791    c0.729,0,1.244,0.259,1.791,0.259c0.441,0,0.684-0.14,0.883-0.259h0.088v2.629h-0.514c-0.17-1.082-1.049-2.069-2.189-2.069    c-0.789,0-1.605,0.307-1.605,1.29c0,0.839,0.428,0.941,2.307,1.384c1.459,0.333,2.566,0.789,2.566,2.669    c0,1.961-1.627,2.782-3.326,2.782c-0.773,0-1.594-0.259-2.311-0.259c-0.316,0-0.633,0.137-0.799,0.259h-0.109L197.34,34.242    L197.34,34.242z"/>
	</g>
</g>
</svg>
