<svg id="Layer_1" enable-background="new 0 0 512 512" height="512" viewBox="0 0 512 512" width="512" xmlns="http://www.w3.org/2000/svg"><g><path d="m256 142.467c-8.284 0-15-6.716-15-15v-64.267c0-8.284 6.716-15 15-15s15 6.716 15 15v64.267c0 8.284-6.716 15-15 15z" fill="#78281e"/><path d="m352.4 206.734h-192.8c-8.284 0-15-6.716-15-15 0-43.708 35.559-79.267 79.267-79.267h64.267c43.708 0 79.267 35.559 79.267 79.267-.001 8.284-6.717 15-15.001 15z" fill="#fdb442"/><path d="m367.4 191.734c0-43.708-35.559-79.267-79.267-79.267h-32.133v94.267h96.4c8.284 0 15-6.716 15-15z" fill="#ff8c28"/><path d="m432.734 287.067h-353.467c-8.284 0-15-6.716-15-15 0-52.567 42.767-95.333 95.333-95.333h192.8c52.567 0 95.333 42.767 95.333 95.333.001 8.284-6.715 15-14.999 15z" fill="#fadc5c"/><path d="m447.734 272.067c0-52.567-42.767-95.333-95.333-95.333h-96.401v110.333h176.733c8.285 0 15.001-6.716 15.001-15z" fill="#fdb442"/><path d="m288.133 512h-64.267c-43.708 0-79.267-35.559-79.267-79.267 0-8.284 6.716-15 15-15h192.8c8.284 0 15 6.716 15 15 .001 43.708-35.558 79.267-79.266 79.267z" fill="#fdb442"/><path d="m367.4 432.734c0-8.284-6.716-15-15-15h-96.4v94.266h32.133c43.708 0 79.267-35.559 79.267-79.266z" fill="#ff8c28"/><path d="m352.4 447.734h-192.8c-52.567 0-95.333-42.767-95.333-95.333 0-8.284 6.716-15 15-15h353.467c8.284 0 15 6.716 15 15 0 52.566-42.767 95.333-95.334 95.333z" fill="#fadc5c"/><path d="m447.734 352.4c0-8.284-6.716-15-15-15h-176.734v110.333h96.4c52.567.001 95.334-42.766 95.334-95.333z" fill="#fdb442"/><path d="m440.767 257.067h-369.533c-30.468 0-55.167 24.699-55.167 55.167s24.699 55.166 55.167 55.166h369.533c30.468 0 55.167-24.699 55.167-55.167s-24.7-55.166-55.167-55.166z" fill="#f7ef9a"/><path d="m138.073 4.394c-5.857-5.858-15.355-5.858-21.213 0l-48.2 48.2c-5.858 5.858-5.858 15.355 0 21.213 5.857 5.858 15.355 5.858 21.213 0l48.2-48.2c5.858-5.858 5.858-15.355 0-21.213z" fill="#a54628"/><path d="m454.26 138.073-64.267-64.267c-5.858-5.858-5.858-15.355 0-21.213 5.857-5.858 15.355-5.858 21.213 0l64.267 64.267c5.858 5.858 5.858 15.355 0 21.213-5.858 5.86-15.357 5.857-21.213 0z" fill="#78281e"/><path d="m497 78.2h-482c-8.284 0-15-6.716-15-15s6.716-15 15-15h482c8.284 0 15 6.716 15 15s-6.716 15-15 15z" fill="#d26432"/><path d="m512 63.2c0-8.284-6.716-15-15-15h-241v30h241c8.284 0 15-6.715 15-15z" fill="#a54628"/><path d="m256 367.4h184.767c30.468 0 55.167-24.699 55.167-55.167s-24.699-55.167-55.167-55.167h-184.767z" fill="#fadc5c"/><circle cx="256" cy="312.234" fill="#a54628" r="71.233"/><path d="m327.234 312.234c0-39.279-31.956-71.234-71.234-71.234v142.467c39.278 0 71.234-31.955 71.234-71.233z" fill="#78281e"/></g></svg>