<?xml version="1.0" encoding="UTF-8"?>
<svg xmlns="http://www.w3.org/2000/svg" xmlns:xlink="http://www.w3.org/1999/xlink" width="13pt" height="24pt" viewBox="0 0 13 24" version="1.1">
<g id="surface1">
<path style=" stroke:none;fill-rule:nonzero;fill:rgb(30.588235%,47.058824%,58.823529%);fill-opacity:1;" d="M 4.921875 12.820312 C 4.921875 12.820312 4.339844 13.171875 5.328125 13.269531 C 6.523438 13.421875 7.15625 13.394531 8.476562 13.144531 C 8.476562 13.144531 8.832031 13.371094 9.316406 13.546875 C 6.34375 14.792969 2.585938 13.46875 4.921875 12.820312 Z M 4.542969 11.203125 C 4.542969 11.203125 3.90625 11.675781 4.898438 11.773438 C 6.191406 11.898438 7.207031 11.925781 8.960938 11.574219 C 8.960938 11.574219 9.1875 11.824219 9.570312 11.949219 C 5.988281 12.996094 1.976562 12.050781 4.542969 11.203125 Z M 11.550781 14.042969 C 11.550781 14.042969 11.980469 14.394531 11.066406 14.667969 C 9.367188 15.167969 3.933594 15.316406 2.410156 14.667969 C 1.875 14.441406 2.890625 14.117188 3.222656 14.070312 C 3.550781 13.996094 3.730469 13.996094 3.730469 13.996094 C 3.144531 13.59375 -0.15625 14.816406 2.050781 15.167969 C 8.121094 16.140625 13.125 14.746094 11.550781 14.046875 Z M 5.203125 9.503906 C 5.203125 9.503906 2.433594 10.152344 4.210938 10.378906 C 4.972656 10.476562 6.472656 10.453125 7.867188 10.351562 C 9.011719 10.253906 10.15625 10.054688 10.15625 10.054688 C 10.15625 10.054688 9.75 10.230469 9.46875 10.402344 C 6.648438 11.125 1.238281 10.800781 2.789062 10.054688 C 4.109375 9.429688 5.203125 9.503906 5.203125 9.503906 Z M 10.152344 12.222656 C 12.996094 10.777344 11.675781 9.382812 10.761719 9.554688 C 10.535156 9.605469 10.433594 9.65625 10.433594 9.65625 C 10.433594 9.65625 10.507812 9.503906 10.6875 9.457031 C 12.488281 8.832031 13.910156 11.328125 10.101562 12.296875 C 10.101562 12.296875 10.128906 12.273438 10.152344 12.222656 Z M 5.480469 16.164062 C 8.222656 16.335938 12.414062 16.0625 12.515625 14.792969 C 12.515625 14.792969 12.3125 15.289062 10.253906 15.664062 C 7.917969 16.089844 5.023438 16.039062 3.324219 15.765625 C 3.324219 15.765625 3.679688 16.0625 5.480469 16.164062 Z M 5.480469 16.164062 "/>
<path style=" stroke:none;fill-rule:nonzero;fill:rgb(96.078431%,50.980392%,9.803922%);fill-opacity:1;" d="M 8.425781 1.277344 C 8.425781 1.277344 10 2.847656 6.925781 5.214844 C 4.460938 7.136719 6.367188 8.234375 6.925781 9.480469 C 5.476562 8.207031 4.4375 7.085938 5.148438 6.039062 C 6.191406 4.492188 9.0625 3.746094 8.425781 1.277344 Z M 7.613281 8.433594 C 8.347656 9.257812 7.410156 10.003906 7.410156 10.003906 C 7.410156 10.003906 9.289062 9.058594 8.425781 7.882812 C 7.636719 6.761719 7.027344 6.214844 10.328125 4.34375 C 10.328125 4.34375 5.125 5.613281 7.613281 8.433594 Z M 7.613281 8.433594 "/>
<path style=" stroke:none;fill-rule:nonzero;fill:rgb(30.588235%,47.058824%,58.823529%);fill-opacity:1;" d="M 6.300781 21.5 L 6.300781 19.058594 C 6.300781 18.433594 5.945312 18.011719 5.058594 18.011719 C 4.550781 18.011719 4.117188 18.136719 3.734375 18.285156 L 3.863281 18.734375 C 4.140625 18.632812 4.496094 18.535156 4.878906 18.535156 C 5.359375 18.535156 5.589844 18.734375 5.589844 19.132812 L 5.589844 19.457031 L 5.335938 19.457031 C 4.117188 19.457031 3.558594 19.90625 3.558594 20.632812 C 3.558594 21.230469 3.9375 21.578125 4.625 21.578125 C 5.054688 21.578125 5.386719 21.378906 5.691406 21.128906 L 5.742188 21.503906 L 6.300781 21.503906 Z M 5.589844 20.703125 C 5.335938 20.929688 5.058594 21.054688 4.800781 21.054688 C 4.472656 21.054688 4.269531 20.855469 4.269531 20.503906 C 4.269531 20.152344 4.472656 19.90625 5.285156 19.90625 L 5.589844 19.90625 Z M 8.6875 21.5 L 7.800781 21.5 L 6.734375 18.085938 L 7.496094 18.085938 L 8.15625 20.179688 L 8.308594 20.804688 C 8.636719 19.90625 8.890625 18.984375 8.992188 18.085938 L 9.753906 18.085938 C 9.550781 19.207031 9.195312 20.429688 8.6875 21.5 Z M 12.800781 21.5 L 12.800781 19.058594 C 12.800781 18.433594 12.445312 18.011719 11.558594 18.011719 C 11.050781 18.011719 10.617188 18.136719 10.238281 18.285156 L 10.335938 18.734375 C 10.644531 18.632812 11 18.535156 11.378906 18.535156 C 11.863281 18.535156 12.089844 18.734375 12.089844 19.132812 L 12.089844 19.457031 L 11.835938 19.457031 C 10.617188 19.457031 10.058594 19.90625 10.058594 20.632812 C 10.058594 21.230469 10.414062 21.578125 11.097656 21.578125 C 11.554688 21.578125 11.886719 21.378906 12.191406 21.128906 L 12.242188 21.503906 L 12.800781 21.503906 Z M 12.089844 20.703125 C 11.835938 20.929688 11.558594 21.054688 11.304688 21.054688 C 10.972656 21.054688 10.769531 20.855469 10.769531 20.503906 C 10.769531 20.152344 10.972656 19.90625 11.785156 19.90625 L 12.089844 19.90625 Z M 2.773438 22.074219 C 2.570312 22.375 2.265625 22.597656 1.882812 22.722656 L 1.550781 22.324219 C 1.808594 22.175781 2.058594 21.949219 2.164062 21.75 C 2.261719 21.578125 2.289062 21.328125 2.289062 20.753906 L 2.289062 16.863281 L 3.050781 16.863281 L 3.050781 20.703125 C 3.050781 21.476562 2.976562 21.777344 2.773438 22.074219 Z M 2.773438 22.074219 "/>
</g>
</svg>
